<?xml version="1.0" encoding="iso-8859-1"?>
<!-- Uploaded to: SVG Repo, www.svgrepo.com, Generator: SVG Repo Mixer Tools -->
<svg version="1.1" id="Layer_1" xmlns="http://www.w3.org/2000/svg" xmlns:xlink="http://www.w3.org/1999/xlink" 
	 viewBox="0 0 296.563 296.563" xml:space="preserve">
<g>
	
		<rect x="215.28" y="28.64" transform="matrix(-0.7071 -0.7071 0.7071 -0.7071 387.8495 264.8643)" style="fill:#28D2E4;" width="66.999" height="46.933"/>
	
		<rect x="121.09" y="41.244" transform="matrix(-0.7071 -0.7071 0.7071 -0.7071 187.7667 347.7447)" style="fill:#13829B;" width="89.628" height="187.481"/>
	
		<rect x="102.165" y="120.172" transform="matrix(0.7071 -0.7071 0.7071 0.7071 -46.8572 156.8494)" style="fill:#FFDB77;" width="127.481" height="29.629"/>
	<polygon style="fill:#28D2E4;" points="71.631,278.493 22.396,229.258 67.929,169.583 131.306,232.96 	"/>
	<g>
		<polygon style="fill:#FFDB77;" points="60.08,266.942 33.948,240.81 7.499,267.259 42.287,284.735 		"/>
		<g>
			<path style="fill:#22313F;" d="M294.366,53.9L246.99,6.524c-2.929-2.929-7.678-2.929-10.606,0L208.5,34.407l-2.697-2.697
				c-2.929-2.929-7.678-2.929-10.606,0L62.626,164.28c-0.101,0.101-0.561,0.625-0.659,0.754l-45.533,59.675
				c-2.278,2.986-1.997,7.197,0.659,9.853l6.248,6.248L2.195,261.956c-3.61,3.609-2.632,9.71,1.937,12.005l34.788,17.477
				c2.88,1.448,6.379,0.894,8.67-1.398l12.49-12.49l6.248,6.248c2.655,2.656,6.867,2.938,9.853,0.659l59.675-45.533
				c0.124-0.095,0.654-0.559,0.754-0.659l132.57-132.57c2.929-2.929,2.929-7.678,0-10.606l-2.697-2.697l27.883-27.883
				C297.295,61.578,297.295,56.829,294.366,53.9z M40.813,275.602l-20.668-10.383l13.803-13.803l15.526,15.526L40.813,275.602z
				 M72.296,268.552c-4.781-4.781-35.22-35.22-39.958-39.958l36.352-47.642l51.249,51.249L72.296,268.552z M131.306,222.354
				l-52.771-52.77L200.5,47.62c5.838,5.838,47.91,47.91,52.77,52.771L131.306,222.354z M255.876,81.783l-36.77-36.77l22.58-22.58
				l36.77,36.77L255.876,81.783z"/>
			<path style="fill:#22313F;" d="M205.803,74.136c-2.928-2.929-7.677-2.929-10.606,0l-90.144,90.144
				c-2.927,2.926-2.929,7.679,0,10.606l20.951,20.951c2.929,2.929,7.678,2.929,10.606,0l90.144-90.144
				c2.929-2.929,2.929-7.678,0-10.606L205.803,74.136z M131.307,179.927l-10.345-10.344L200.5,90.046l10.344,10.344L131.307,179.927
				z"/>
		</g>
	</g>
</g>
</svg>